<svg width="16" height="17" viewBox="0 0 16 17" fill="none" xmlns="http://www.w3.org/2000/svg">
<path d="M3.91086 6.03966C3.48067 6.03966 3.11239 5.88648 2.80604 5.58013C2.49969 5.27378 2.34652 4.90551 2.34652 4.47532C2.34652 4.04512 2.49969 3.67685 2.80604 3.3705C3.11239 3.06415 3.48067 2.91097 3.91086 2.91097C4.34106 2.91097 4.70933 3.06415 5.01568 3.3705C5.32203 3.67685 5.47521 4.04512 5.47521 4.47532C5.47521 4.90551 5.32203 5.27378 5.01568 5.58013C4.70933 5.88648 4.34106 6.03966 3.91086 6.03966ZM2.34652 16.2079C2.1249 16.2079 1.93914 16.1329 1.78922 15.983C1.6393 15.8331 1.56434 15.6473 1.56434 15.4257C1.13415 15.4257 0.765877 15.2726 0.459526 14.9662C0.153175 14.6599 0 14.2916 0 13.8614V9.16835H2.34652V8.58172C2.34652 8.08634 2.51599 7.66919 2.85493 7.33024C3.19387 6.9913 3.61103 6.82183 4.1064 6.82183C4.36713 6.82183 4.6083 6.87398 4.82991 6.97827C5.05153 7.08256 5.25359 7.22595 5.4361 7.40846L6.53114 8.62083C6.63543 8.72512 6.73646 8.82289 6.83423 8.91414C6.932 9.0054 7.03955 9.09013 7.15688 9.16835H12.5148V2.79364C12.5148 2.61114 12.4496 2.4547 12.3192 2.32434C12.1889 2.19398 12.0324 2.1288 11.8499 2.1288C11.7717 2.1288 11.6967 2.14509 11.625 2.17768C11.5533 2.21027 11.4849 2.25916 11.4197 2.32434L10.442 3.30206C10.5072 3.52367 10.5202 3.74203 10.4811 3.95713C10.442 4.17222 10.3638 4.37103 10.2465 4.55353L8.09548 2.36345C8.27799 2.24612 8.47353 2.17117 8.68211 2.13858C8.89069 2.10598 9.09927 2.1288 9.30785 2.20702L10.2856 1.2293C10.4941 1.02072 10.7321 0.857768 10.9993 0.740442C11.2665 0.623116 11.5501 0.564453 11.8499 0.564453C12.4756 0.564453 13.0036 0.779551 13.4338 1.20975C13.864 1.63994 14.0791 2.16791 14.0791 2.79364V9.16835H15.6434V13.8614C15.6434 14.2916 15.4903 14.6599 15.1839 14.9662C14.8776 15.2726 14.5093 15.4257 14.0791 15.4257C14.0791 15.6473 14.0041 15.8331 13.8542 15.983C13.7043 16.1329 13.5185 16.2079 13.2969 16.2079H2.34652ZM1.56434 13.8614H14.0791V10.7327H1.56434V13.8614Z" fill="#1C1B1F"/>
</svg>
