<svg width="16" height="16" viewBox="0 0 16 16" fill="none" xmlns="http://www.w3.org/2000/svg">
<path d="M3.91086 5.60411C3.48067 5.60411 3.11239 5.45094 2.80604 5.14459C2.49969 4.83824 2.34652 4.46996 2.34652 4.03977C2.34652 3.60957 2.49969 3.2413 2.80604 2.93495C3.11239 2.6286 3.48067 2.47542 3.91086 2.47542C4.34106 2.47542 4.70933 2.6286 5.01568 2.93495C5.32203 3.2413 5.47521 3.60957 5.47521 4.03977C5.47521 4.46996 5.32203 4.83824 5.01568 5.14459C4.70933 5.45094 4.34106 5.60411 3.91086 5.60411ZM2.34652 15.7724C2.1249 15.7724 1.93914 15.6974 1.78922 15.5475C1.6393 15.3976 1.56434 15.2118 1.56434 14.9902C1.13415 14.9902 0.765877 14.837 0.459526 14.5307C0.153175 14.2243 0 13.856 0 13.4258V8.7328H2.34652V8.14617C2.34652 7.6508 2.51599 7.23364 2.85493 6.8947C3.19387 6.55576 3.61103 6.38629 4.10641 6.38629C4.36713 6.38629 4.6083 6.43843 4.82991 6.54272C5.05153 6.64701 5.25359 6.79041 5.4361 6.97291L6.53114 8.18528C6.63543 8.28957 6.73646 8.38734 6.83423 8.4786C6.932 8.56985 7.03955 8.65459 7.15688 8.7328H12.5148V2.3581C12.5148 2.17559 12.4496 2.01916 12.3192 1.88879C12.1889 1.75843 12.0324 1.69325 11.8499 1.69325C11.7717 1.69325 11.6967 1.70955 11.625 1.74214C11.5533 1.77473 11.4849 1.82361 11.4197 1.88879L10.442 2.86651C10.5072 3.08813 10.5202 3.30648 10.4811 3.52158C10.442 3.73668 10.3638 3.93548 10.2465 4.11799L8.09548 1.9279C8.27799 1.81058 8.47353 1.73562 8.68211 1.70303C8.89069 1.67044 9.09927 1.69325 9.30785 1.77147L10.2856 0.793753C10.4941 0.585173 10.7321 0.422221 10.9993 0.304895C11.2665 0.187569 11.5501 0.128906 11.8499 0.128906C12.4756 0.128906 13.0036 0.344004 13.4338 0.774198C13.864 1.20439 14.0791 1.73236 14.0791 2.3581V8.7328H15.6434V13.4258C15.6434 13.856 15.4903 14.2243 15.1839 14.5307C14.8776 14.837 14.5093 14.9902 14.0791 14.9902C14.0791 15.2118 14.0041 15.3976 13.8542 15.5475C13.7043 15.6974 13.5185 15.7724 13.2969 15.7724H2.34652ZM1.56434 13.4258H14.0791V10.2971H1.56434V13.4258Z" fill="#1C1B1F"/>
</svg>
