<svg width="16" height="12" viewBox="0 0 16 12" fill="none" xmlns="http://www.w3.org/2000/svg">
<path d="M0.125 11.2971V6.60406C0.125 6.25208 0.196699 5.93269 0.340097 5.6459C0.483496 5.3591 0.672521 5.1049 0.907172 4.88328V2.6932C0.907172 2.04139 1.13531 1.48735 1.59157 1.03108C2.04784 0.574813 2.60188 0.34668 3.25369 0.34668H6.38238C6.68221 0.34668 6.96249 0.402084 7.22321 0.512891C7.48394 0.623699 7.72511 0.776875 7.94672 0.972418C8.16834 0.776875 8.40951 0.623699 8.67023 0.512891C8.93096 0.402084 9.21124 0.34668 9.51107 0.34668H12.6398C13.2916 0.34668 13.8456 0.574813 14.3019 1.03108C14.7581 1.48735 14.9863 2.04139 14.9863 2.6932V4.88328C15.2209 5.1049 15.41 5.3591 15.5534 5.6459C15.6967 5.93269 15.7684 6.25208 15.7684 6.60406V11.2971H14.2041V9.73275H1.68934V11.2971H0.125ZM8.7289 4.25754H13.4219V2.6932C13.4219 2.47158 13.347 2.28582 13.1971 2.1359C13.0471 1.98598 12.8614 1.91102 12.6398 1.91102H9.51107C9.28945 1.91102 9.10369 1.98598 8.95377 2.1359C8.80385 2.28582 8.7289 2.47158 8.7289 2.6932V4.25754ZM2.47152 4.25754H7.16455V2.6932C7.16455 2.47158 7.08959 2.28582 6.93968 2.1359C6.78976 1.98598 6.60399 1.91102 6.38238 1.91102H3.25369C3.03207 1.91102 2.84631 1.98598 2.69639 2.1359C2.54648 2.28582 2.47152 2.47158 2.47152 2.6932V4.25754ZM1.68934 8.1684H14.2041V6.60406C14.2041 6.38244 14.1291 6.19668 13.9792 6.04676C13.8293 5.89684 13.6435 5.82189 13.4219 5.82189H2.47152C2.2499 5.82189 2.06414 5.89684 1.91422 6.04676C1.7643 6.19668 1.68934 6.38244 1.68934 6.60406V8.1684Z" fill="#1C1B1F"/>
</svg>
