<svg width="10" height="10" viewBox="0 0 10 10" fill="none" xmlns="http://www.w3.org/2000/svg">
<path d="M3.89015 6.18763C3.98769 6.18763 4.06945 6.15464 4.13544 6.08865C4.20142 6.02267 4.23441 5.94091 4.23441 5.84337C4.23441 5.74583 4.20142 5.66407 4.13544 5.59808C4.06945 5.5321 3.98769 5.49911 3.89015 5.49911C3.79261 5.49911 3.71085 5.5321 3.64487 5.59808C3.57888 5.66407 3.54589 5.74583 3.54589 5.84337C3.54589 5.94091 3.57888 6.02267 3.64487 6.08865C3.71085 6.15464 3.79261 6.18763 3.89015 6.18763ZM3.54589 4.81058H4.23441V2.74502H3.54589V4.81058ZM3.89015 8.35647L2.73688 7.22041H1.13606V5.6196L0 4.46632L1.13606 3.31305V1.71223H2.73688L3.89015 0.576172L5.04343 1.71223H6.64424V3.31305L7.7803 4.46632L6.64424 5.6196V7.22041H5.04343L3.89015 8.35647ZM3.89015 7.39254L4.7508 6.53189H5.95572V5.32698L6.81637 4.46632L5.95572 3.60567V2.40076H4.7508L3.89015 1.5401L3.0295 2.40076H1.82458V3.60567L0.963931 4.46632L1.82458 5.32698V6.53189H3.0295L3.89015 7.39254Z" fill="#1C1C1C" fill-opacity="0.4"/>
</svg>
