<svg width="18" height="17" viewBox="0 0 18 17" fill="none" xmlns="http://www.w3.org/2000/svg">
<path d="M2.34652 16.079V8.74613L0.938607 9.82162L0 8.57014L2.34652 6.77114V4.34641H3.91086V5.57833L8.6039 1.99989L17.2078 8.57014L16.2692 9.80206L14.8613 8.74613V16.079H2.34652ZM3.91086 14.5146H7.82172V11.386H9.38607V14.5146H13.2969V7.55332L8.6039 3.97488L3.91086 7.55332V14.5146ZM2.34652 3.56424C2.34652 2.91243 2.57465 2.35839 3.03092 1.90212C3.48719 1.44585 4.04122 1.21772 4.69303 1.21772C4.91465 1.21772 5.10042 1.14276 5.25033 0.992845C5.40025 0.842928 5.47521 0.657162 5.47521 0.435547H7.03955C7.03955 1.08736 6.81142 1.6414 6.35515 2.09766C5.89888 2.55393 5.34484 2.78206 4.69303 2.78206C4.47142 2.78206 4.28565 2.85702 4.13574 3.00694C3.98582 3.15686 3.91086 3.34262 3.91086 3.56424H2.34652Z" fill="#1C1B1F"/>
</svg>
