<?xml version="1.0" encoding="UTF-8"?>
<svg id="Livello_2" data-name="Livello 2" xmlns="http://www.w3.org/2000/svg" viewBox="0 0 221.75 209.58">
  <defs>
    <style>
      .cls-1 {
        fill: #000;
        stroke-width: 0px;
      }
    </style>
  </defs>
  <g id="Livello_1-2" data-name="Livello 1">
    <path class="cls-1" d="M182.33,2.59l-4.93-2.59H47.51l-4.8,2.4L.01,59.4v7.18s106.49,143,106.49,143l9.64-.02,105.5-143,.11-6.97L182.33,2.59ZM205.37,57h-49.87l-17.83-45h36.59l31.12,45ZM65.59,69l30.82,106.94L16.76,69h48.82ZM143.51,69l-32.27,115.06-33.16-115.06h65.43ZM78.93,57l17.83-45h27.99l17.83,45h-63.65ZM155.97,69h48.96l-78.99,107.07,30.03-107.07ZM50.51,12h33.34l-17.83,45H16.8L50.51,12Z"/>
  </g>
</svg>