<svg width="20" height="21" viewBox="0 0 20 21" fill="none" xmlns="http://www.w3.org/2000/svg">
<path d="M2 20.4521C1.45 20.4521 0.979167 20.2563 0.5875 19.8646C0.195833 19.473 0 19.0021 0 18.4521V4.45212C0 3.90212 0.195833 3.43129 0.5875 3.03962C0.979167 2.64796 1.45 2.45212 2 2.45212H10.925L8.925 4.45212H2V18.4521H16V11.5021L18 9.50212V18.4521C18 19.0021 17.8042 19.473 17.4125 19.8646C17.0208 20.2563 16.55 20.4521 16 20.4521H2ZM6 14.4521V10.2021L15.175 1.02712C15.375 0.827124 15.6 0.677124 15.85 0.577124C16.1 0.477124 16.35 0.427124 16.6 0.427124C16.8667 0.427124 17.1208 0.477124 17.3625 0.577124C17.6042 0.677124 17.825 0.827124 18.025 1.02712L19.425 2.45212C19.6083 2.65212 19.75 2.87296 19.85 3.11462C19.95 3.35629 20 3.60212 20 3.85212C20 4.10212 19.9542 4.34796 19.8625 4.58962C19.7708 4.83129 19.625 5.05212 19.425 5.25212L10.25 14.4521H6ZM8 12.4521H9.4L15.2 6.65212L14.5 5.95212L13.775 5.25212L8 11.0271V12.4521Z" fill="#434343"/>
</svg>
