<?xml version="1.0" encoding="UTF-8"?>
<svg id="Livello_2" data-name="Livello 2" xmlns="http://www.w3.org/2000/svg" viewBox="0 0 313.45 242">
  <defs>
    <style>
      .cls-1 {
        fill: #000;
        stroke-width: 0px;
      }
    </style>
  </defs>
  <g id="Livello_1-2" data-name="Livello 1">
    <path class="cls-1" d="M312.82,50.54l-1.7-2.91L262.36,1.64l-4.12-1.64H57l-4.02,1.54L1.98,47.54l-1.98,4.46v140l2.14,4.59,52.34,44,3.86,1.41h200.66l4.37-1.88,48-50.92,1.63-4.07c.46-59.23.8-130.66-.18-134.58ZM301.07,175.5l-37.34-18.23c.4-48.27.31-66.62.11-73.86l37.5-21.3c.25,21.04.02,73.12-.27,113.39ZM258.4,72.7l-25.35-21.67,26.05-35.98,37.88,35.74-38.58,21.91ZM223.03,186H92.64l-31.19-23.75v-79.4l30.41-24.85h130.87l29.15,24.91c.27,9.79.07,49.14-.15,75.52l-28.69,27.57ZM221.88,46H92.81l-24.18-34h177.86l-24.62,34ZM81.57,50.9l-26.74,21.85-38.63-21.87L56.02,14.97l25.56,35.94ZM49.44,83.5v78.15l-37.44,20.28V62.29l37.44,21.2ZM54.89,172.34l27.4,20.86-25,34.08-40.68-34.2,38.29-20.74ZM93.65,198h128.82l24.4,32H70.18l23.47-32ZM233.46,192.62l25.37-24.38,38.21,18.66-37.56,39.85-26.02-34.12Z"/>
  </g>
</svg>