<svg width="12" height="12" viewBox="0 0 12 12" fill="none" xmlns="http://www.w3.org/2000/svg">
<path d="M8.05316 6.32566L7.29034 5.53863C7.36926 5.11346 7.25089 4.71542 6.93524 4.34452C6.61959 3.97362 6.21188 3.82888 5.71211 3.91029L4.9493 3.12326C5.09835 3.05089 5.2496 2.99662 5.40304 2.96043C5.55648 2.92425 5.72088 2.90615 5.89624 2.90615C6.55383 2.90615 7.11279 3.14362 7.57311 3.61855C8.03343 4.09348 8.26359 4.67019 8.26359 5.34866C8.26359 5.52959 8.24605 5.6992 8.21098 5.85752C8.17591 6.01583 8.1233 6.17188 8.05316 6.32566ZM9.73661 8.03542L8.97379 7.27553C9.30698 7.01318 9.6029 6.72596 9.86155 6.41386C10.1202 6.10177 10.3416 5.7467 10.5257 5.34866C10.0873 4.43498 9.45823 3.70901 8.63842 3.17076C7.81861 2.6325 6.90455 2.36337 5.89624 2.36337C5.64197 2.36337 5.39208 2.38147 5.14657 2.41765C4.90107 2.45384 4.65995 2.50811 4.42322 2.58049L3.6078 1.73918C3.96728 1.58539 4.33554 1.47005 4.71256 1.39316C5.08958 1.31626 5.48414 1.27782 5.89624 1.27782C7.2202 1.27782 8.39949 1.6555 9.43411 2.41087C10.4687 3.16623 11.2184 4.1455 11.6831 5.34866C11.4814 5.88239 11.2162 6.37768 10.8874 6.83452C10.5586 7.29136 10.175 7.69166 9.73661 8.03542ZM9.99965 11.3735L7.79012 9.12098C7.48324 9.22048 7.17417 9.29512 6.86291 9.34487C6.55164 9.39463 6.22942 9.4195 5.89624 9.4195C4.57227 9.4195 3.39298 9.04182 2.35836 8.28645C1.32374 7.53108 0.574078 6.55182 0.109375 5.34866C0.293502 4.8692 0.525854 4.42367 0.806429 4.01207C1.087 3.60046 1.40703 3.23182 1.76652 2.90615L0.319806 1.38637L1.05632 0.62648L10.7362 10.6136L9.99965 11.3735ZM2.50303 3.66604C2.24876 3.90125 2.01641 4.15907 1.80598 4.4395C1.59555 4.71994 1.4158 5.02299 1.26675 5.34866C1.70515 6.26234 2.33425 6.98831 3.15405 7.52656C3.97386 8.06482 4.88792 8.33395 5.89624 8.33395C6.0716 8.33395 6.24257 8.32264 6.40916 8.30002C6.57575 8.27741 6.74673 8.25253 6.92209 8.22539L6.44862 7.70975C6.35217 7.73689 6.26011 7.75724 6.17243 7.77081C6.08475 7.78438 5.99268 7.79117 5.89624 7.79117C5.23864 7.79117 4.67968 7.5537 4.21936 7.07877C3.75904 6.60384 3.52888 6.02713 3.52888 5.34866C3.52888 5.24915 3.53546 5.15416 3.54861 5.0637C3.56176 4.97324 3.58149 4.87825 3.6078 4.77874L2.50303 3.66604Z" fill="#313133"/>
</svg>
