<svg width="18" height="16" viewBox="0 0 18 16" fill="none" xmlns="http://www.w3.org/2000/svg">
<path d="M2.34652 15.6434V8.31058L0.938607 9.38607L0 8.13459L2.34652 6.3356V3.91086H3.91086V5.14278L8.6039 1.56434L17.2078 8.13459L16.2692 9.36651L14.8613 8.31058V15.6434H2.34652ZM3.91086 14.0791H7.82172V10.9504H9.38607V14.0791H13.2969V7.11777L8.6039 3.53933L3.91086 7.11777V14.0791ZM2.34652 3.12869C2.34652 2.47688 2.57465 1.92284 3.03092 1.46657C3.48719 1.01031 4.04122 0.782172 4.69303 0.782172C4.91465 0.782172 5.10042 0.707214 5.25033 0.557298C5.40025 0.407381 5.47521 0.221616 5.47521 0H7.03955C7.03955 0.65181 6.81142 1.20585 6.35515 1.66212C5.89888 2.11838 5.34484 2.34652 4.69303 2.34652C4.47142 2.34652 4.28565 2.42148 4.13574 2.57139C3.98582 2.72131 3.91086 2.90707 3.91086 3.12869H2.34652Z" fill="#222222"/>
</svg>
