<?xml version="1.0" encoding="UTF-8"?>
<svg xmlns="http://www.w3.org/2000/svg" xmlns:xlink="http://www.w3.org/1999/xlink" width="40px" height="39px" viewBox="0 0 39 39" version="1.1">
<g id="surface1">
<path style=" stroke:none;fill-rule:nonzero;fill:rgb(0%,0%,0%);fill-opacity:1;" d="M 38.171875 11.964844 L 25.976562 0.671875 C 25.117188 -0.125 23.839844 -0.222656 22.871094 0.433594 L 12.292969 7.585938 C 12.226562 7.621094 12.164062 7.660156 12.101562 7.699219 L 1.132812 15.121094 C 0.421875 15.597656 0 16.402344 0 17.269531 L 0 32.773438 C 0 34.054688 0.902344 35.125 2.144531 35.320312 L 25.3125 38.96875 C 25.445312 38.992188 25.574219 39 25.703125 39 C 26.304688 39 26.890625 38.78125 27.355469 38.375 C 27.355469 38.375 27.355469 38.371094 27.359375 38.367188 L 37.734375 31.382812 C 37.871094 31.304688 38.003906 31.210938 38.121094 31.105469 C 38.679688 30.613281 39 29.902344 39 29.152344 L 39 13.867188 C 39 13.144531 38.695312 12.449219 38.171875 11.960938 Z M 24.144531 2.402344 C 24.230469 2.34375 24.347656 2.351562 24.425781 2.421875 L 36.621094 13.71875 C 36.667969 13.757812 36.691406 13.8125 36.691406 13.875 L 36.691406 29.15625 C 36.691406 29.226562 36.65625 29.277344 36.628906 29.304688 L 36.550781 29.359375 C 36.519531 29.371094 36.480469 29.378906 36.429688 29.375 L 28.230469 28.078125 L 28.230469 21.144531 C 28.230469 20.417969 27.925781 19.722656 27.402344 19.234375 L 15.519531 8.230469 L 24.140625 2.402344 Z M 13.078125 10 C 13.078125 9.929688 13.113281 9.863281 13.171875 9.820312 L 13.433594 9.644531 C 13.511719 9.621094 13.597656 9.640625 13.65625 9.695312 L 25.851562 20.984375 C 25.894531 21.027344 25.917969 21.082031 25.917969 21.144531 L 25.917969 27.714844 L 13.257812 25.722656 C 13.148438 25.703125 13.070312 25.613281 13.070312 25.503906 L 13.070312 10 Z M 25.664062 36.636719 L 2.496094 32.988281 C 2.386719 32.96875 2.308594 32.882812 2.308594 32.773438 L 2.308594 17.269531 C 2.308594 17.199219 2.34375 17.132812 2.40625 17.089844 L 10.765625 11.433594 L 10.765625 25.503906 C 10.765625 26.785156 11.671875 27.855469 12.914062 28.050781 L 25.925781 30.097656 L 25.925781 36.417969 C 25.925781 36.5 25.882812 36.550781 25.851562 36.582031 C 25.816406 36.613281 25.753906 36.648438 25.664062 36.636719 Z M 25.664062 36.636719 "/>
</g>
</svg>
