<svg width="32" height="32" viewBox="0 0 32 32" fill="none" xmlns="http://www.w3.org/2000/svg">
<circle cx="16" cy="16" r="16" fill="white"/>
<path d="M25.5758 11.1336L19.3205 5.34398C18.8797 4.93648 18.2241 4.88578 17.7282 5.22004L12.3049 8.88759C12.2718 8.90637 12.2388 8.92515 12.2075 8.94768L6.58035 12.7523C6.21671 12.9983 6 13.4096 6 13.8546V21.8057C6 22.463 6.46281 23.0113 7.10009 23.1127L18.9807 24.985C19.0468 24.9962 19.1129 25 19.1809 25C19.4894 25 19.7906 24.8873 20.0275 24.6789C20.0275 24.6789 20.0275 24.6789 20.0294 24.677L25.3499 21.0958C25.4197 21.0545 25.4858 21.0076 25.5482 20.9531C25.8347 20.7015 26 20.3372 26 19.9522V12.1157C26 11.7439 25.8457 11.3871 25.5758 11.1373V11.1336ZM18.382 6.23035C18.4261 6.20031 18.4867 6.20406 18.5271 6.24162L24.7824 12.0312C24.8044 12.0519 24.8173 12.0819 24.8173 12.1119V19.9484C24.8173 19.9841 24.8007 20.0085 24.786 20.0254L24.7475 20.0517C24.7309 20.0592 24.7107 20.063 24.685 20.0592L20.4812 19.3963V15.8396C20.4812 15.4678 20.3269 15.111 20.0569 14.8612L13.9633 9.21998L18.3838 6.23035H18.382ZM12.7052 10.1251C12.7052 10.0894 12.7236 10.0538 12.7548 10.0331L12.8889 9.94297C12.9275 9.92983 12.9734 9.93921 13.0028 9.96738L19.258 15.757C19.2801 15.7776 19.2929 15.8077 19.2929 15.8377V19.2085L12.8007 18.1851C12.7456 18.1757 12.7052 18.1306 12.7052 18.0743V10.1232V10.1251ZM19.1607 23.785L7.28007 21.9127C7.22498 21.9033 7.18457 21.8583 7.18457 21.8019V13.8509C7.18457 13.8152 7.20294 13.7795 7.23416 13.7589L11.5225 10.8594V18.0743C11.5225 18.7316 11.9853 19.2799 12.6226 19.3813L19.2948 20.4329V23.6742C19.2948 23.7155 19.2746 23.7418 19.2562 23.7568C19.2378 23.7737 19.2066 23.7906 19.1607 23.785Z" fill="black"/>
</svg>
