<svg width="710" height="694" viewBox="0 0 710 694" fill="none" xmlns="http://www.w3.org/2000/svg">
<path d="M694.921 212.919L472.901 11.9504C457.228 -2.20383 433.988 -3.98661 416.369 7.68251L223.804 134.962C222.615 135.611 221.48 136.313 220.345 137.015L20.5915 269.049C7.67451 277.585 0 291.847 0 307.298V583.197C0 605.995 16.4299 625.066 39.0751 628.523L460.849 693.46C463.227 693.838 465.551 694 467.929 694C478.9 694 489.547 690.11 497.978 682.871C497.978 682.871 498.032 682.817 498.086 682.763L686.976 558.454C689.463 557.05 691.841 555.375 694.002 553.484C704.163 544.786 710 532.091 710 518.747V246.792C710 233.88 704.487 221.508 694.921 212.865V212.919ZM439.555 42.7439C441.122 41.7175 443.284 41.8795 444.689 43.1221L666.709 244.09C667.52 244.793 667.952 245.819 667.952 246.9V518.855C667.952 520.098 667.358 520.962 666.817 521.502L665.412 522.421C664.818 522.637 664.115 522.799 663.196 522.691L513.922 499.677V376.232C513.922 363.321 508.409 350.949 498.843 342.305L282.552 146.469L439.501 42.7439H439.555ZM238.072 177.965C238.072 176.723 238.72 175.534 239.801 174.778L244.557 171.645C245.963 171.212 247.53 171.536 248.611 172.509L470.631 373.423C471.442 374.179 471.874 375.152 471.874 376.232V493.194L241.369 457.7C239.369 457.376 237.964 455.809 237.964 453.864V177.965H238.072ZM467.226 651.969L45.4525 587.033C43.4528 586.709 42.0477 585.142 42.0477 583.197V307.298C42.0477 306.056 42.6962 304.867 43.7771 304.111L196.024 203.465V453.81C196.024 476.608 212.454 495.679 235.099 499.136L471.982 535.602V648.08C471.982 649.484 471.226 650.403 470.631 650.943C469.983 651.537 468.848 652.132 467.226 651.915V651.969Z" fill="black"/>
</svg>
