<svg width="754" height="190" viewBox="0 0 754 190" fill="none" xmlns="http://www.w3.org/2000/svg">
<path d="M190.861 58.2656L129.869 3.27448C125.577 -0.611038 119.19 -1.08612 114.336 2.10374L61.4517 36.9377C61.1281 37.1073 60.8044 37.294 60.4979 37.4976L5.65464 73.655C2.11197 75.9965 0 79.899 0 84.1238V159.645C0 165.889 4.51349 171.098 10.7302 172.066L126.565 189.847C127.212 189.949 127.86 190 128.507 190C131.522 190 134.451 188.931 136.767 186.963C136.767 186.963 136.767 186.963 136.784 186.946L188.664 152.926C189.345 152.536 189.993 152.078 190.606 151.569C193.399 149.177 195 145.715 195 142.05V67.6146C195 64.0854 193.484 60.6919 190.861 58.3165V58.2656ZM120.723 11.6903C121.166 11.4018 121.745 11.4527 122.137 11.7921L183.129 66.8002C183.35 67.0038 183.469 67.2753 183.469 67.5637V141.999C183.469 142.339 183.316 142.576 183.163 142.729L182.771 142.984C182.601 143.051 182.413 143.085 182.175 143.051L141.179 136.757V102.975C141.179 99.4453 139.663 96.0519 137.04 93.6764L77.6321 40.0936L120.74 11.6903H120.723ZM65.3861 48.696C65.3861 48.3567 65.5734 48.0173 65.863 47.8307L67.1744 46.9654C67.5662 46.8466 67.992 46.9314 68.2985 47.2029L129.29 102.211C129.512 102.415 129.631 102.686 129.631 102.975V134.992L66.3228 125.27C65.7778 125.185 65.3861 124.744 65.3861 124.218V48.696ZM128.32 178.462L12.4845 160.68C11.9395 160.596 11.5477 160.154 11.5477 159.628V84.1069C11.5477 83.7675 11.7351 83.4282 12.0246 83.2415L53.8383 55.7035V124.235C53.8383 130.479 58.3518 135.688 64.5685 136.655L129.631 146.648V177.444C129.631 177.834 129.427 178.089 129.256 178.225C129.069 178.377 128.762 178.547 128.337 178.479L128.32 178.462Z" fill="black"/>
<path d="M343.202 61.7222C347.616 66.3066 349.832 72.8851 349.832 81.4746V123.076H337.34V81.9518C337.34 76.6345 335.942 72.6124 333.164 69.8856C330.369 67.1588 326.739 65.7954 322.257 65.7954C317.263 65.7954 313.276 67.2099 310.293 70.0219C307.311 72.834 305.828 77.1628 305.828 82.9914V123.059H293.336V81.9348C293.336 76.5493 292.04 72.5102 289.45 69.8345C286.859 67.1417 283.314 65.7954 278.832 65.7954C273.771 65.7954 269.714 67.2269 266.681 70.0731C263.63 72.9192 262.113 77.231 262.113 82.9914V123.059H249.621V55.7913H261.721V64.6365C263.767 61.5006 266.562 59.0805 270.089 57.3763C273.617 55.672 277.673 54.8369 282.292 54.8369C286.91 54.8369 291.171 55.7402 294.682 57.5297C298.21 59.3191 300.868 61.8585 302.658 65.1136C304.908 61.8415 307.958 59.3191 311.827 57.5297C315.696 55.7402 320.007 54.8369 324.745 54.8369C332.619 54.8369 338.771 57.1206 343.202 61.7051V61.7222Z" fill="black"/>
<path d="M416.318 71.7767V123.092H404.883V116.463C402.889 118.9 400.451 120.723 397.537 121.933C394.623 123.143 391.402 123.757 387.874 123.757C382.88 123.757 378.415 122.666 374.461 120.485C370.525 118.303 367.44 115.236 365.241 111.265C363.026 107.294 361.918 102.675 361.918 97.4259C361.918 92.1768 363.026 87.5753 365.241 83.6384C367.457 79.7016 370.525 76.6339 374.461 74.4695C378.398 72.288 382.863 71.1973 387.874 71.1973C391.197 71.1973 394.265 71.7767 397.043 72.9356C399.821 74.0945 402.241 75.7817 404.303 78.0314V71.7767H416.318ZM400.179 109.049C403.059 106.101 404.508 102.232 404.508 97.4259C404.508 92.6199 403.059 88.7512 400.179 85.8028C397.299 82.8545 393.651 81.3888 389.22 81.3888C384.789 81.3888 381.159 82.8545 378.313 85.8028C375.467 88.7512 374.035 92.6199 374.035 97.4259C374.035 102.232 375.467 106.101 378.313 109.049C381.159 111.997 384.806 113.463 389.22 113.463C393.634 113.463 397.299 111.997 400.179 109.049Z" fill="black"/>
<path d="M436.543 119.377C433.561 116.463 432.078 112.356 432.078 107.021V51.7861H444.093V106.169C444.093 111.299 446.496 113.856 451.302 113.856C452.904 113.856 454.336 113.532 455.631 112.901L456.211 122.513C453.961 123.348 451.558 123.757 449.001 123.757C443.684 123.757 439.543 122.309 436.56 119.377H436.543Z" fill="black"/>
<path d="M525.284 55.8252V123.093H512.792V94.2564H478.008V123.093H465.516V55.8252H478.008V83.5877H512.792V55.8252H525.284Z" fill="black"/>
<path d="M551.228 120.399C547.07 118.15 543.814 115.031 541.48 111.026C539.145 107.021 537.969 102.488 537.969 97.4259C537.969 92.3643 539.145 87.848 541.48 83.877C543.814 79.9061 547.07 76.8043 551.228 74.5547C555.386 72.305 560.073 71.1973 565.254 71.1973C570.435 71.1973 575.207 72.3221 579.382 74.5547C583.541 76.8043 586.796 79.9061 589.131 83.877C591.466 87.848 592.642 92.3643 592.642 97.4259C592.642 102.488 591.466 107.021 589.131 111.026C586.796 115.031 583.541 118.15 579.382 120.399C575.224 122.649 570.503 123.757 565.254 123.757C560.005 123.757 555.386 122.632 551.228 120.399ZM576.213 109.049C579.093 106.101 580.541 102.232 580.541 97.4259C580.541 92.6199 579.093 88.7512 576.213 85.8028C573.332 82.8545 569.685 81.3888 565.254 81.3888C560.823 81.3888 557.193 82.8545 554.347 85.8028C551.501 88.7512 550.069 92.6199 550.069 97.4259C550.069 102.232 551.501 106.101 554.347 109.049C557.193 111.997 560.84 113.463 565.254 113.463C569.668 113.463 573.332 111.997 576.213 109.049Z" fill="black"/>
<path d="M684.33 76.8214C688.113 80.5707 690.005 86.1948 690.005 93.6936V123.092H677.99V95.2274C677.99 90.7452 677.002 87.3708 675.008 85.087C673.014 82.8204 670.168 81.6785 666.452 81.6785C662.413 81.6785 659.175 83.0078 656.755 85.6665C654.318 88.3252 653.108 92.1257 653.108 97.051V123.092H641.093V95.2274C641.093 90.7452 640.104 87.3708 638.11 85.087C636.116 82.8204 633.27 81.6785 629.555 81.6785C625.448 81.6785 622.209 82.9908 619.806 85.6154C617.403 88.2399 616.21 92.0575 616.21 97.051V123.092H604.195V71.7767H615.631V78.3041C617.557 76.0033 619.96 74.2309 622.84 73.0208C625.72 71.8108 628.924 71.1973 632.452 71.1973C636.304 71.1973 639.712 71.9131 642.678 73.3617C645.66 74.8103 648.012 76.9406 649.733 79.7527C651.847 77.0599 654.573 74.9637 657.897 73.4639C661.22 71.9642 664.918 71.1973 668.94 71.1973C675.417 71.1973 680.529 73.072 684.313 76.8214H684.33Z" fill="black"/>
<path d="M744.186 107.992L750.526 115.389C748.276 118.15 745.396 120.229 741.885 121.644C738.357 123.058 734.386 123.757 729.972 123.757C724.331 123.757 719.372 122.632 715.077 120.399C710.782 118.15 707.476 115.031 705.124 111.026C702.789 107.021 701.613 102.488 701.613 97.4259C701.613 92.3643 702.755 87.9332 705.022 83.9281C707.288 79.9231 710.441 76.8043 714.446 74.5547C718.451 72.305 722.985 71.1973 728.046 71.1973C733.108 71.1973 737.215 72.2369 741.169 74.3161C745.106 76.3953 748.225 79.3778 750.543 83.2464C752.844 87.1151 754.003 91.6485 754.003 96.8465L714.702 104.533C715.912 107.481 717.872 109.714 720.565 111.265C723.257 112.798 726.496 113.565 730.262 113.565C735.835 113.565 740.488 111.708 744.203 107.992H744.186ZM717.327 85.1211C714.6 88.0013 713.236 91.8871 713.236 96.7442V96.8465L742.26 91.2735C741.425 88.1377 739.738 85.5983 737.215 83.6896C734.676 81.7637 731.625 80.8093 728.046 80.8093C723.632 80.8093 720.053 82.258 717.327 85.1382V85.1211Z" fill="black"/>
</svg>
