<svg width="12" height="10" viewBox="0 0 12 10" fill="none" xmlns="http://www.w3.org/2000/svg">
<path d="M1.33854 9.66634C1.01771 9.66634 0.743056 9.5521 0.514583 9.32363C0.286111 9.09516 0.171875 8.82051 0.171875 8.49967V1.49967C0.171875 1.17884 0.286111 0.904188 0.514583 0.675716C0.743056 0.447244 1.01771 0.333008 1.33854 0.333008H10.6719C10.9927 0.333008 11.2674 0.447244 11.4958 0.675716C11.7243 0.904188 11.8385 1.17884 11.8385 1.49967V8.49967C11.8385 8.82051 11.7243 9.09516 11.4958 9.32363C11.2674 9.5521 10.9927 9.66634 10.6719 9.66634H1.33854ZM6.00521 5.58301L1.33854 2.66634V8.49967H10.6719V2.66634L6.00521 5.58301ZM6.00521 4.41634L10.6719 1.49967H1.33854L6.00521 4.41634ZM1.33854 2.66634V1.49967V8.49967V2.66634Z" fill="#1C1B1F"/>
</svg>
