<svg width="12" height="10" viewBox="0 0 12 10" fill="none" xmlns="http://www.w3.org/2000/svg">
<path d="M1.16667 9.33333C0.845833 9.33333 0.571181 9.2191 0.342708 8.99063C0.114236 8.76215 0 8.4875 0 8.16667V1.16667C0 0.845833 0.114236 0.571181 0.342708 0.342708C0.571181 0.114236 0.845833 0 1.16667 0H10.5C10.8208 0 11.0955 0.114236 11.324 0.342708C11.5524 0.571181 11.6667 0.845833 11.6667 1.16667V8.16667C11.6667 8.4875 11.5524 8.76215 11.324 8.99063C11.0955 9.2191 10.8208 9.33333 10.5 9.33333H1.16667ZM5.83333 5.25L1.16667 2.33333V8.16667H10.5V2.33333L5.83333 5.25ZM5.83333 4.08333L10.5 1.16667H1.16667L5.83333 4.08333ZM1.16667 2.33333V1.16667V8.16667V2.33333Z" fill="#222222"/>
</svg>
