<svg width="31" height="33" viewBox="0 0 31 33" fill="none" xmlns="http://www.w3.org/2000/svg">
<path d="M21.3239 29.3799H22.9034V25.3606H26.8523V23.7528H22.9034V19.7334H21.3239V23.7528H17.375V25.3606H21.3239V29.3799ZM22.1136 32.5954C19.9286 32.5954 18.066 31.8117 16.526 30.2441C14.9859 28.6765 14.2159 26.7807 14.2159 24.5567C14.2159 22.3326 14.9859 20.4368 16.526 18.8693C18.066 17.3017 19.9286 16.5179 22.1136 16.5179C24.2987 16.5179 26.1612 17.3017 27.7013 18.8693C29.2413 20.4368 30.0113 22.3326 30.0113 24.5567C30.0113 26.7807 29.2413 28.6765 27.7013 30.2441C26.1612 31.8117 24.2987 32.5954 22.1136 32.5954ZM0 29.3799V10.0869L12.6364 0.44043L25.2727 10.0869V13.7848C24.7725 13.624 24.2592 13.5034 23.7327 13.423C23.2061 13.3426 22.6665 13.3024 22.1136 13.3024V11.6947L12.6364 4.45981L3.15909 11.6947V26.1644H11.1753C11.2543 26.7272 11.3727 27.2765 11.5307 27.8124C11.6886 28.3483 11.8861 28.8708 12.123 29.3799H0Z" fill="#1C1B1F"/>
</svg>
