<?xml version="1.0" encoding="UTF-8"?>
<svg id="Livello_2" data-name="Livello 2" xmlns="http://www.w3.org/2000/svg" viewBox="0 0 122.06 160.44">
  <defs>
    <style>
      .cls-1 {
        fill: #010002;
      }

      .cls-1, .cls-2 {
        stroke-width: 0px;
      }

      .cls-2 {
        fill: #fff;
      }
    </style>
  </defs>
  <g id="Livello_1-2" data-name="Livello 1">
    <g>
      <path class="cls-1" d="M61.03,0C27.32,0,0,27.33,0,61.03c0,20.01,21.5,57.99,38.98,85.56,11.71,18.46,32.39,18.46,44.1,0,17.48-27.57,38.98-65.55,38.98-85.56C122.06,27.32,94.74,0,61.03,0Z"/>
      <path class="cls-2" d="M91.84,45.47l-20.13-18.22c-1.42-1.28-3.53-1.44-5.12-.39l-17.45,11.54c-.11.06-.21.12-.31.19l-18.1,11.97h0c-1.17.77-1.87,2.07-1.87,3.47v25.02c0,2.07,1.49,3.8,3.54,4.11l38.23,5.89c.21.03.43.05.64.05.99,0,1.96-.35,2.73-1.01,0,0,0,0,0,0l17.12-11.27c.22-.13.44-.28.64-.45.92-.79,1.45-1.94,1.45-3.15v-24.66c0-1.17-.5-2.29-1.37-3.08ZM68.69,30.04c.14-.09.34-.08.47.03l20.13,18.22c.07.07.11.16.11.25v24.66c0,.11-.05.19-.1.24l-.13.08c-.05.02-.12.03-.2.02l-13.53-2.08v-11.19c0-1.17-.5-2.29-1.37-3.08l-19.61-17.75,14.23-9.41ZM50.43,42.3c0-.11.06-.22.16-.29l.43-.29c.13-.04.27-.01.37.08l20.12,18.22c.07.07.11.16.11.25v10.61l-20.89-3.22c-.18-.03-.31-.17-.31-.35v-25.02ZM71.2,85.29l-38.23-5.89c-.18-.03-.31-.17-.31-.35v-25.02c0-.11.06-.22.16-.29l13.8-9.12v22.7c0,2.07,1.49,3.8,3.54,4.11l21.47,3.31v10.2c0,.13-.07.21-.12.26-.06.05-.16.11-.31.09Z"/>
    </g>
  </g>
</svg>