<?xml version="1.0" encoding="UTF-8"?>
<svg id="Livello_2" data-name="Livello 2" xmlns="http://www.w3.org/2000/svg" viewBox="0 0 447.03 457.93">
  <defs>
    <style>
      .cls-1 {
        fill: none;
        stroke: #000;
        stroke-miterlimit: 10;
        stroke-width: 10px;
      }
    </style>
  </defs>
  <g id="Livello_1-2" data-name="Livello 1">
    <g>
      <path class="cls-1" d="M441.37,5.7c-23,2.7-53.64,8.5-87.46,21.67-13,5.06-26.47,11.21-40.16,18.68-34.32,18.74-61.93,41.41-83.91,64.29-39.03,40.6-60.34,81.84-70.06,102.85-8.23,7.96-16.47,15.92-24.7,23.88,4.12,5.49,8.23,10.98,12.35,16.47-8.23,7.41-16.47,14.82-24.7,22.23,17.29,18.94,34.58,37.88,51.87,56.81,8.51-9.06,17.02-18.11,25.52-27.17,5.76,5.21,11.53,10.43,17.29,15.64,8.51-8.51,17.02-17.03,25.54-25.54,13-6.35,31.48-16.39,51.86-31.27,14.78-10.8,70.51-53.33,109.51-131.74,23.87-47.99,33.33-93.05,37.05-126.8Z"/>
      <polyline class="cls-1" points="229.84 110.33 171.31 116.85 78.27 204.13 159.78 213.19 242.96 295.51 242.96 377.04 328.57 287.29 344.93 218.95"/>
      <circle class="cls-1" cx="304.7" cy="139.08" r="32.11"/>
      <path class="cls-1" d="M353.91,27.36c1.54,7.13,4.27,15.6,9.24,24.31,16.66,29.2,47.5,40.51,57.26,43.48"/>
      <line class="cls-1" x1="147.43" y1="253.53" x2="200.13" y2="305.4"/>
      <line class="cls-1" x1="110.11" y1="302.93" x2="33.26" y2="377.04"/>
      <path class="cls-1" d="M1.97,453.34c3.84-1.65,126.25-125.7,126.25-125.7"/>
      <line class="cls-1" x1="81.01" y1="417.66" x2="151.27" y2="348.49"/>
    </g>
  </g>
</svg>