<svg width="20" height="20" viewBox="0 0 20 20" fill="none" xmlns="http://www.w3.org/2000/svg">
<path d="M7.5612 13.5423L9.9987 12.0632L12.4362 13.5423L11.7904 10.7715L13.957 8.89649L11.1029 8.66732L9.9987 6.04232L8.89453 8.66732L6.04037 8.89649L8.20703 10.7715L7.5612 13.5423ZM9.9987 19.4173L7.20703 16.6673H3.33203V12.7923L0.582031 10.0007L3.33203 7.20898V3.33398H7.20703L9.9987 0.583984L12.7904 3.33398H16.6654V7.20898L19.4154 10.0007L16.6654 12.7923V16.6673H12.7904L9.9987 19.4173ZM9.9987 17.084L12.082 15.0007H14.9987V12.084L17.082 10.0007L14.9987 7.91732V5.00065H12.082L9.9987 2.91732L7.91537 5.00065H4.9987V7.91732L2.91536 10.0007L4.9987 12.084V15.0007H7.91537L9.9987 17.084Z" fill="#1C1B1F"/>
</svg>
