<svg width="14" height="9" viewBox="0 0 14 9" fill="none" xmlns="http://www.w3.org/2000/svg">
<path d="M7.16667 7C7.89583 7 8.51562 6.74479 9.02604 6.23438C9.53646 5.72396 9.79167 5.10417 9.79167 4.375C9.79167 3.64583 9.53646 3.02604 9.02604 2.51562C8.51562 2.00521 7.89583 1.75 7.16667 1.75C6.4375 1.75 5.81771 2.00521 5.30729 2.51562C4.79688 3.02604 4.54167 3.64583 4.54167 4.375C4.54167 5.10417 4.79688 5.72396 5.30729 6.23438C5.81771 6.74479 6.4375 7 7.16667 7ZM7.16667 5.95C6.72917 5.95 6.35729 5.79688 6.05104 5.49062C5.74479 5.18437 5.59167 4.8125 5.59167 4.375C5.59167 3.9375 5.74479 3.56562 6.05104 3.25937C6.35729 2.95312 6.72917 2.8 7.16667 2.8C7.60417 2.8 7.97604 2.95312 8.28229 3.25937C8.58854 3.56562 8.74167 3.9375 8.74167 4.375C8.74167 4.8125 8.58854 5.18437 8.28229 5.49062C7.97604 5.79688 7.60417 5.95 7.16667 5.95ZM7.16667 8.75C5.74722 8.75 4.45417 8.35382 3.2875 7.56146C2.12083 6.7691 1.275 5.70694 0.75 4.375C1.275 3.04306 2.12083 1.9809 3.2875 1.18854C4.45417 0.396181 5.74722 0 7.16667 0C8.58611 0 9.87917 0.396181 11.0458 1.18854C12.2125 1.9809 13.0583 3.04306 13.5833 4.375C13.0583 5.70694 12.2125 6.7691 11.0458 7.56146C9.87917 8.35382 8.58611 8.75 7.16667 8.75ZM7.16667 7.58333C8.26528 7.58333 9.27396 7.2941 10.1927 6.71562C11.1115 6.13715 11.8139 5.35694 12.3 4.375C11.8139 3.39306 11.1115 2.61285 10.1927 2.03437C9.27396 1.4559 8.26528 1.16667 7.16667 1.16667C6.06806 1.16667 5.05937 1.4559 4.14062 2.03437C3.22187 2.61285 2.51944 3.39306 2.03333 4.375C2.51944 5.35694 3.22187 6.13715 4.14062 6.71562C5.05937 7.2941 6.06806 7.58333 7.16667 7.58333Z" fill="#222222"/>
</svg>
