<svg width="13" height="9" viewBox="0 0 13 9" fill="none" xmlns="http://www.w3.org/2000/svg">
<path d="M6.41667 7C7.14583 7 7.76562 6.74479 8.27604 6.23438C8.78646 5.72396 9.04167 5.10417 9.04167 4.375C9.04167 3.64583 8.78646 3.02604 8.27604 2.51562C7.76562 2.00521 7.14583 1.75 6.41667 1.75C5.6875 1.75 5.06771 2.00521 4.55729 2.51562C4.04688 3.02604 3.79167 3.64583 3.79167 4.375C3.79167 5.10417 4.04688 5.72396 4.55729 6.23438C5.06771 6.74479 5.6875 7 6.41667 7ZM6.41667 5.95C5.97917 5.95 5.60729 5.79688 5.30104 5.49062C4.99479 5.18437 4.84167 4.8125 4.84167 4.375C4.84167 3.9375 4.99479 3.56562 5.30104 3.25937C5.60729 2.95312 5.97917 2.8 6.41667 2.8C6.85417 2.8 7.22604 2.95312 7.53229 3.25937C7.83854 3.56562 7.99167 3.9375 7.99167 4.375C7.99167 4.8125 7.83854 5.18437 7.53229 5.49062C7.22604 5.79688 6.85417 5.95 6.41667 5.95ZM6.41667 8.75C4.99722 8.75 3.70417 8.35382 2.5375 7.56146C1.37083 6.7691 0.525 5.70694 0 4.375C0.525 3.04306 1.37083 1.9809 2.5375 1.18854C3.70417 0.396181 4.99722 0 6.41667 0C7.83611 0 9.12917 0.396181 10.2958 1.18854C11.4625 1.9809 12.3083 3.04306 12.8333 4.375C12.3083 5.70694 11.4625 6.7691 10.2958 7.56146C9.12917 8.35382 7.83611 8.75 6.41667 8.75ZM6.41667 7.58333C7.51528 7.58333 8.52396 7.2941 9.44271 6.71562C10.3615 6.13715 11.0639 5.35694 11.55 4.375C11.0639 3.39306 10.3615 2.61285 9.44271 2.03437C8.52396 1.4559 7.51528 1.16667 6.41667 1.16667C5.31806 1.16667 4.30937 1.4559 3.39062 2.03437C2.47187 2.61285 1.76944 3.39306 1.28333 4.375C1.76944 5.35694 2.47187 6.13715 3.39062 6.71562C4.30937 7.2941 5.31806 7.58333 6.41667 7.58333Z" fill="#1C1B1F"/>
</svg>
